#!OML:ASF F:\VICON\USERDATA\Patient Classification 1\PLAYGROUND\JustinFriday\JustinFriday.ASF
:FULLY-SPECIFIED
:DEGREES
1164
root 13.9143 30.9502 37.4485 -137.197 -2.70412 -178.008
lowerback 31.5675 -3.92834 2.82146
upperback 0.827052 -4.65965 -0.300215
thorax -15.8084 -2.44708 0.159373
lowerneck 28.3935 6.06025 -8.35075
upperneck -8.01277 4.95479 -2.58297
head -7.02193 3.08281 -0.281766
rclavicle -3.33958e-014 3.97569e-015
rhumerus 118.901 -14.6518 -87.9601
rradius 117.304
rwrist 24.2133
rhand -35.1901 -16.4414
rfingers 7.12502
rthumb -8.32822 -46.2572
lclavicle -3.33958e-014 3.97569e-015
lhumerus 114.795 36.0388 74.1992
lradius 111.114
lwrist -28.8933
lhand -30.6304 0.529842
lfingers 7.12502
lthumb -3.92624 30.4734
rfemur -36.3013 -1.57452 28.2695
rtibia 36.6256
rfoot -43.922 -19.8664
rtoes 0.747338
lfemur -36.4975 5.94272 -17.9231
ltibia 37.4117
lfoot -41.133 -2.88532
ltoes -2.59553
1165
root 13.9168 30.9776 37.5232 -137.14 -2.4844 -177.658
lowerback 31.5734 -3.76055 2.73699
upperback 0.914814 -4.48159 -0.273432
thorax -15.6929 -2.36869 0.155848
lowerneck 28.1269 6.19801 -9.13736
upperneck -8.20296 5.04947 -1.201
head -7.09224 3.00522 0.285332
rclavicle 2.38542e-014 -7.95139e-015
rhumerus 118.565 -14.4351 -87.9745
rradius 117.052
rwrist 24.4235
rhand -35.5552 -16.0544
rfingers 7.12502
rthumb -8.68061 -45.8559
lclavicle 2.38542e-014 -7.95139e-015
lhumerus 114.553 35.7404 74.0305
lradius 110.774
lwrist -29.2332
lhand -30.8066 0.495543
lfingers 7.12502
lthumb -4.09639 30.4359
rfemur -36.6574 -1.30915 28.4632
rtibia 36.6284
rfoot -43.7789 -19.565
rtoes 1.1112
lfemur -36.8593 6.32494 -17.7978
ltibia 37.4358
lfoot -41.0326 -3.18973
ltoes -2.24468
1166
root 13.901 30.9975 37.5978 -137.284 -3.10083 -178.076
lowerback 31.8049 -4.1525 3.26083
upperback 1.06542 -4.81332 -0.263359
thorax -15.6601 -2.55512 0.0354384
lowerneck 27.8414 6.13744 -9.67289
upperneck -8.39361 4.9148 -0.320695
head -7.15578 2.86526 0.694085
rclavicle -4.77083e-015 -7.15625e-015
rhumerus 118.491 -14.2266 -87.8553
rradius 116.601
rwrist 24.4371
rhand -36.103 -15.6735
rfingers 7.12502
rthumb -9.20923 -45.4524
lclavicle -4.77083e-015 -7.15625e-015
lhumerus 114.481 35.5141 74.0606
lradius 110.743
lwrist -29.509
lhand -30.3337 0.96935
lfingers 7.12502
lthumb -3.63969 30.918
rfemur -36.7921 -1.62051 28.388
rtibia 36.6257
rfoot -43.7571 -19.8179
rtoes 1.52575
lfemur -37.0956 5.74368 -17.799
ltibia 37.475
lfoot -40.806 -3.58396
ltoes -2.47197
1167
root 13.9022 31.02 37.6771 -137.141 -2.86046 -177.844
lowerback 31.6886 -3.98272 3.10494
upperback 1.20911 -4.67081 -0.247808
thorax -15.4213 -2.49047 0.0633655
lowerneck 27.538 5.88829 -9.78188
upperneck -8.60362 4.59295 -0.110532
head -7.17857 2.69173 0.832428
rclavicle 4.77083e-015 -2.8625e-014
rhumerus 118.612 -14.0153 -87.6398
rradius 116.09
rwrist 23.9774
rhand -36.7209 -15.2565
rfingers 7.12502
rthumb -9.80542 -45.0082
lclavicle 4.77083e-015 -2.8625e-014
lhumerus 114.566 35.398 74.031
lradius 110.392
lwrist -29.7264
lhand -30.3789 0.994704
lfingers 7.12502
lthumb -3.68337 30.9426
rfemur -37.2682 -1.26962 28.4257
rtibia 36.6199
rfoot -43.4875 -19.6652
rtoes 1.65585
lfemur -37.5436 5.81188 -17.7394
ltibia 37.5056
lfoot -40.6608 -3.16251
ltoes -3.04165
1168
root 13.8988 31.0454 37.7569 -137.128 -2.80846 -177.67
lowerback 31.7633 -3.92837 3.13874
upperback 1.28995 -4.59396 -0.210712
thorax -15.3541 -2.463 0.0547702
lowerneck 27.3741 5.76165 -10.0435
upperneck -8.80847 4.39584 0.291207
head -7.23106 2.56534 1.03772
rclavicle 1.43125e-014 -2.94201e-014
rhumerus 118.377 -13.9913 -87.1923
rradius 115.605
rwrist 23.0817
rhand -37.8383 -14.7722
rfingers 7.12502
rthumb -10.8833 -44.4702
lclavicle 1.43125e-014 -2.94201e-014
lhumerus 114.506 35.316 73.8328
lradius 109.517
lwrist -29.949
lhand -31.2836 0.582664
lfingers 7.12502
lthumb -4.55695 30.5136
rfemur -37.616 -1.07096 28.5073
rtibia 36.6495
rfoot -43.3149 -19.5753
rtoes 1.6443
lfemur -37.8831 5.89256 -17.6579
ltibia 37.509
lfoot -40.5192 -3.14259
ltoes -2.71365
1169
root 13.883 31.0737 37.8326 -137.128 -3.371 -178.145
lowerback 31.7366 -4.34706 3.66035
upperback 1.40603 -4.9725 -0.282866
thorax -15.2611 -2.66858 -0.14787
lowerneck 27.0807 5.72681 -10.4487
upperneck -8.95457 4.34955 1.11069
head -7.26311 2.47029 1.38856
rclavicle -3.18055e-015 2.8625e-014
rhumerus 118.142 -13.9485 -87.1712
rradius 115.106
rwrist 22.9346
rhand -38.5014 -14.2544
rfingers 7.12502
rthumb -11.5229 -43.9176
lclavicle -3.18055e-015 2.8625e-014
lhumerus 114.132 35.2375 73.5811
lradius 109.052
lwrist -30.1497
lhand -31.9489 0.336716
lfingers 7.12502
lthumb -5.19936 30.2529
rfemur -37.9614 -1.39385 28.3351
rtibia 36.7063
rfoot -43.305 -19.8486
rtoes 2.00504
lfemur -38.2806 5.61311 -17.8964
ltibia 37.4727
lfoot -40.3425 -3.65628
ltoes -2.32981
1170
root 13.8881 31.1025 37.9137 -137.157 -3.00165 -178.052
lowerback 31.7824 -4.18706 3.3759
upperback 1.58879 -4.91906 -0.411642
thorax -15.0566 -2.64264 -0.161753
lowerneck 26.5851 5.5937 -10.7404
upperneck -9.06115 4.22304 1.81089
head -7.24204 2.34476 1.69728
rclavicle 6.83819e-014 4.13472e-014
rhumerus 118.042 -13.85 -87.266
rradius 114.703
rwrist 23.1574
rhand -38.8849 -14.24
rfingers 7.12502
rthumb -11.8926 -43.8822
lclavicle 6.83819e-014 4.13472e-014
lhumerus 114.031 35.1916 73.5367
lradius 108.959
lwrist -30.2038
lhand -31.8028 0.352512
lfingers 7.12502
lthumb -5.05828 30.2721
rfemur -38.3178 -1.44331 28.3154
rtibia 36.7806
rfoot -43.0583 -19.5359
rtoes 2.01579
lfemur -38.5236 6.15482 -18.1835
ltibia 37.4267
lfoot -40.2367 -3.53545
ltoes -2.88664
1171
root 13.8812 31.1277 37.9958 -137.256 -3.17821 -178.293
lowerback 31.9007 -4.35668 3.54787
upperback 1.71529 -5.10419 -0.477465
thorax -14.9851 -2.74324 -0.24371
lowerneck 26.3137 5.46474 -11.182
upperneck -9.21862 4.02428 2.46359
head -7.26698 2.19983 2.01855
rclavicle 8.42847e-014 1.51076e-014
rhumerus 117.95 -13.7144 -87.1872
rradius 114.215
rwrist 23.3726
rhand -39.2133 -14.259
rfingers 7.12502
rthumb -12.2093 -43.8826
lclavicle 8.42847e-014 1.51076e-014
lhumerus 114 34.9385 73.4753
lradius 108.792
lwrist -30.4327
lhand -31.0111 0.531949
lfingers 7.12502
lthumb -4.29389 30.4684
rfemur -38.5904 -1.83851 28.2649
rtibia 36.8605
rfoot -42.9452 -19.4052
rtoes 2.06077
lfemur -38.7482 5.99281 -18.366
ltibia 37.3785
lfoot -39.9892 -3.58633
ltoes -3.19854
1172
root 13.8782 31.1546 38.0851 -137.159 -3.1866 -178.314
lowerback 31.894 -4.38404 3.60456
upperback 1.76671 -5.12721 -0.480554
thorax -14.9269 -2.75948 -0.269852
lowerneck 26.129 5.33804 -11.5733
upperneck -9.40907 3.8099 2.93064
head -7.30766 2.06626 2.27029
rclavicle 1.27222e-014 -2.3059e-014
rhumerus 117.768 -13.6307 -86.8615
rradius 113.622
rwrist 23.5151
rhand -39.6626 -14.3807
rfingers 7.12502
rthumb -12.6425 -43.9781
lclavicle 1.27222e-014 -2.3059e-014
lhumerus 113.784 34.7785 73.4872
lradius 108.658
lwrist -30.5627
lhand -30.5551 0.543994
lfingers 7.12502
lthumb -3.85348 30.4889
rfemur -39.0801 -1.64767 28.184
rtibia 36.9063
rfoot -42.8173 -19.4161
rtoes 2.44527
lfemur -39.2316 5.94143 -18.4414
ltibia 37.3779
lfoot -39.7482 -3.77901
ltoes -3.21545
1173
root 13.8879 31.176 38.1582 -137.272 -2.57335 -177.775
lowerback 32.0447 -3.95782 3.14809
upperback 1.9079 -4.76258 -0.444372
thorax -14.776 -2.5822 -0.136222
lowerneck 25.8077 5.24223 -12.1614
upperneck -9.56612 3.63892 3.71017
head -7.32783 1.9291 2.6553
rclavicle -1.90833e-014 -8.74653e-015
rhumerus 117.695 -13.476 -86.49
rradius 112.925
rwrist 23.829
rhand -40.1414 -14.5434
rfingers 7.12502
rthumb -13.104 -44.1117
lclavicle -1.90833e-014 -8.74653e-015
lhumerus 113.893 34.8236 73.6965
lradius 108.144
lwrist -30.4661
lhand -30.7455 0.261083
lfingers 7.12502
lthumb -4.03737 30.2026
rfemur -39.2406 -1.24038 28.4076
rtibia 36.9166
rfoot -42.517 -19.2137
rtoes 2.34891
lfemur -39.3871 7.13915 -18.5114
ltibia 37.4169
lfoot -39.7132 -4.61505
ltoes -3.0688
1174
root 13.8755 31.2058 38.2463 -137.109 -2.92413 -177.917
lowerback 31.9065 -4.16247 3.52053
upperback 1.997 -4.89574 -0.388681
thorax -14.6361 -2.6642 -0.230433
lowerneck 25.4691 5.1875 -13.093
upperneck -9.73154 3.49252 4.97005
head -7.36381 1.77041 3.25631
rclavicle 7.95139e-015 -9.54166e-015
rhumerus 118.048 -13.2689 -86.2293
rradius 112.14
rwrist 23.6276
rhand -40.3342 -14.4869
rfingers 7.12502
rthumb -13.2899 -44.0432
lclavicle 7.95139e-015 -9.54166e-015
lhumerus 113.764 34.2976 73.3829
lradius 107.513
lwrist -31.131
lhand -30.6639 0.125377
lfingers 7.12502
lthumb -3.95862 30.0683
rfemur -39.7979 -1.56915 28.5036
rtibia 36.9215
rfoot -42.2033 -19.4365
rtoes 2.37908
lfemur -39.9857 6.64776 -18.4501
ltibia 37.4793
lfoot -39.5667 -4.74539
ltoes -2.86716
1175
root 13.8606 31.2321 38.3325 -137.208 -3.38787 -178.17
lowerback 31.9054 -4.47572 4.02621
upperback 2.21002 -5.15567 -0.420046
thorax -14.4348 -2.81911 -0.43232
lowerneck 25.1682 5.16277 -13.9749
upperneck -9.9856 3.40436 6.22456
head -7.43784 1.64112 3.84366
rclavicle 8.5875e-014 -9.54166e-015
rhumerus 117.589 -13.1021 -86.2121
rradius 112.379
rwrist 22.9353
rhand -40.4132 -14.2168
rfingers 7.12502
rthumb -13.366 -43.7681
lclavicle 8.5875e-014 -9.54166e-015
lhumerus 113.802 34.3135 73.5686
lradius 107.389
lwrist -31.0886
lhand -30.0696 0.408483
lfingers 7.12502
lthumb -3.38471 30.3614
rfemur -40.0444 -2.10508 28.5825
rtibia 36.9312
rfoot -42.0997 -19.3267
rtoes 2.54237
lfemur -40.3124 6.27877 -18.4946
ltibia 37.5664
lfoot -39.4545 -4.80114
ltoes -2.8859
1176
root 13.8585 31.2549 38.4208 -137.139 -3.2168 -178.122
lowerback 31.7788 -4.4165 3.94888
upperback 2.37125 -5.1501 -0.505743
thorax -14.196 -2.82312 -0.499907
lowerneck 24.9822 5.03196 -14.4566
upperneck -10.2738 3.23624 7.09
head -7.51568 1.49793 4.24832
rclavicle -3.65764e-014 -1.98785e-014
rhumerus 117.27 -12.9085 -86.2061
rradius 112.193
rwrist 22.9779
rhand -40.7582 -14.1293
rfingers 7.12502
rthumb -13.6986 -43.6584
lclavicle -3.65764e-014 -1.98785e-014
lhumerus 113.664 34.2416 73.3469
lradius 106.937
lwrist -31.2491
lhand -30.069 0.573044
lfingers 7.12502
lthumb -3.38413 30.5259
rfemur -40.4961 -2.26677 28.6168
rtibia 36.9594
rfoot -41.8447 -18.8676
rtoes 2.04484
lfemur -40.78 6.44219 -18.6828
ltibia 37.6485
lfoot -39.3072 -4.6885
ltoes -2.88384
